<svg id="visual" viewBox="0 0 900 600" width="900" height="600" xmlns="http://www.w3.org/2000/svg" xmlns:xlink="http://www.w3.org/1999/xlink" version="1.1"><rect x="0" y="0" width="900" height="600" fill="#ffffff"></rect><path d="M651 600L652.8 585.7C654.7 571.3 658.3 542.7 656.2 514.2C654 485.7 646 457.3 644.3 428.8C642.7 400.3 647.3 371.7 650.3 343C653.3 314.3 654.7 285.7 647.2 257C639.7 228.3 623.3 199.7 617.5 171.2C611.7 142.7 616.3 114.3 622.5 85.8C628.7 57.3 636.3 28.7 640.2 14.3L644 0L900 0L900 14.3C900 28.7 900 57.3 900 85.8C900 114.3 900 142.7 900 171.2C900 199.7 900 228.3 900 257C900 285.7 900 314.3 900 343C900 371.7 900 400.3 900 428.8C900 457.3 900 485.7 900 514.2C900 542.7 900 571.3 900 585.7L900 600Z" fill="#e1ba8e"></path><path d="M687 600L682.7 585.7C678.3 571.3 669.7 542.7 673.2 514.2C676.7 485.7 692.3 457.3 691.2 428.8C690 400.3 672 371.7 662.8 343C653.7 314.3 653.3 285.7 656.2 257C659 228.3 665 199.7 671 171.2C677 142.7 683 114.3 684.7 85.8C686.3 57.3 683.7 28.7 682.3 14.3L681 0L900 0L900 14.3C900 28.7 900 57.3 900 85.8C900 114.3 900 142.7 900 171.2C900 199.7 900 228.3 900 257C900 285.7 900 314.3 900 343C900 371.7 900 400.3 900 428.8C900 457.3 900 485.7 900 514.2C900 542.7 900 571.3 900 585.7L900 600Z" fill="#cfa87a"></path><path d="M741 600L738.8 585.7C736.7 571.3 732.3 542.7 725.7 514.2C719 485.7 710 457.3 710.2 428.8C710.3 400.3 719.7 371.7 732.2 343C744.7 314.3 760.3 285.7 755.5 257C750.7 228.3 725.3 199.7 717.8 171.2C710.3 142.7 720.7 114.3 722.2 85.8C723.7 57.3 716.3 28.7 712.7 14.3L709 0L900 0L900 14.3C900 28.7 900 57.3 900 85.8C900 114.3 900 142.7 900 171.2C900 199.7 900 228.3 900 257C900 285.7 900 314.3 900 343C900 371.7 900 400.3 900 428.8C900 457.3 900 485.7 900 514.2C900 542.7 900 571.3 900 585.7L900 600Z" fill="#be9667"></path><path d="M807 600L802 585.7C797 571.3 787 542.7 785.8 514.2C784.7 485.7 792.3 457.3 794 428.8C795.7 400.3 791.3 371.7 784.8 343C778.3 314.3 769.7 285.7 761 257C752.3 228.3 743.7 199.7 749.5 171.2C755.3 142.7 775.7 114.3 777.8 85.8C780 57.3 764 28.7 756 14.3L748 0L900 0L900 14.3C900 28.7 900 57.3 900 85.8C900 114.3 900 142.7 900 171.2C900 199.7 900 228.3 900 257C900 285.7 900 314.3 900 343C900 371.7 900 400.3 900 428.8C900 457.3 900 485.7 900 514.2C900 542.7 900 571.3 900 585.7L900 600Z" fill="#ac8455"></path><path d="M832 600L828.2 585.7C824.3 571.3 816.7 542.7 811 514.2C805.3 485.7 801.7 457.3 806.3 428.8C811 400.3 824 371.7 831.2 343C838.3 314.3 839.7 285.7 839.5 257C839.3 228.3 837.7 199.7 832.7 171.2C827.7 142.7 819.3 114.3 819.5 85.8C819.7 57.3 828.3 28.7 832.7 14.3L837 0L900 0L900 14.3C900 28.7 900 57.3 900 85.8C900 114.3 900 142.7 900 171.2C900 199.7 900 228.3 900 257C900 285.7 900 314.3 900 343C900 371.7 900 400.3 900 428.8C900 457.3 900 485.7 900 514.2C900 542.7 900 571.3 900 585.7L900 600Z" fill="#9b7343"></path><path d="M858 600L855 585.7C852 571.3 846 542.7 841 514.2C836 485.7 832 457.3 832 428.8C832 400.3 836 371.7 840.2 343C844.3 314.3 848.7 285.7 847.3 257C846 228.3 839 199.7 840.5 171.2C842 142.7 852 114.3 858.3 85.8C864.7 57.3 867.3 28.7 868.7 14.3L870 0L900 0L900 14.3C900 28.7 900 57.3 900 85.8C900 114.3 900 142.7 900 171.2C900 199.7 900 228.3 900 257C900 285.7 900 314.3 900 343C900 371.7 900 400.3 900 428.8C900 457.3 900 485.7 900 514.2C900 542.7 900 571.3 900 585.7L900 600Z" fill="#8a6231"></path></svg>